<svg id="GDX" xmlns="http://www.w3.org/2000/svg" xmlns:xlink="http://www.w3.org/1999/xlink" viewBox="0 0 223.14 145.65"><defs><style>.cls-1{fill:none;}.cls-2{clip-path:url(#clip-path);}.cls-3{fill:#fff;}</style><clipPath id="clip-path" transform="translate(-194 -323)"><rect class="cls-1" x="194" y="323" width="224" height="146"/></clipPath></defs><g id="gdx-2" data-name="gdx"><g id="gd"><g class="cls-2"><path class="cls-3" d="M327.09,418.3c3.65,3.21,9.2,5.54,17.23,5.54v-75.3s1-25.54-25.54-25.54v29.33a35.07,35.07,0,0,0-14-1.6c-15,1-27,10.65-37.51,21V350.58c-8,0-13.42,2.34-17.36,5.55a35.92,35.92,0,0,0-19.27-5.55,36.63,36.63,0,1,0,0,73.26,35.86,35.86,0,0,0,11.09-1.75v9.78a10.81,10.81,0,1,1-21.6,0c-32.39,0-16.78,36.78,10.8,36.78a36.35,36.35,0,0,0,36.34-36.78V404.58l5.69-5.69a36.68,36.68,0,0,0,54.14,19.41Zm-96.46-19.85a11.24,11.24,0,1,1,0-22.47,11.42,11.42,0,0,1,10.66,15c5.69-2.34,10.94-6.72,19.84-13.28-10.65,10.8-20.14,20.72-30.5,20.72Zm65.82-11.24a10.16,10.16,0,0,1,1.46-5.54c-6.13,2-11.82,5.54-17.52,9.48,7.45-7.59,16.06-15,27.29-15.17,14.75,0,14.75,22.47,0,22.47a11.15,11.15,0,0,1-11.23-11.24Zm0,0" transform="translate(-194 -323)"/></g></g><path id="x" class="cls-3" d="M417.14,354.52c-19-11.09-30.36,2.34-33.71,7.44-3.51-5.1-14.89-18.53-33.72-7.44l19,32.69-19,33c19,10.94,30.21-2.49,33.72-7.6,3.35,5.11,14.73,18.54,33.71,7.6-14.6-25.4-16.79-28.9-19.12-33Zm0,0" transform="translate(-194 -323)"/></g></svg>